<svg width="24" height="14" viewBox="0 0 24 14" fill="none" xmlns="http://www.w3.org/2000/svg">
<path d="M19.162 13.4942H22.6197L17.6056 6.17088L24 0.0283074H18.3099L5.6338 12.3817L7.9507 0.00100708H4.8169L0 3.05182V6.51213L2.89437 5.20854L2.5 6.34833C2.05634 8.73028 1.60563 11.1259 1.16901 13.4942H10.4789L14.331 9.50834L15.9085 11.8357C16.2724 12.3466 16.7582 12.7648 17.3247 13.0547C17.8911 13.3447 18.5214 13.4978 19.162 13.501V13.4942ZM11.6479 5.05839L8.28873 0.00100708H12.1268C12.6674 0.0307744 13.1961 0.167192 13.6805 0.401906C14.1649 0.63662 14.5947 0.964689 14.9437 1.36602L15.169 1.66633L11.6479 5.05839Z" fill="white"/>
</svg>
